<svg width="78" height="69" viewBox="0 0 78 69" fill="none" xmlns="http://www.w3.org/2000/svg">
<path d="M36.1813 47.6495C36.1813 44.5695 35.3792 41.983 33.775 39.89C32.6381 38.448 31.0955 37.5006 29.1472 37.048C27.2292 36.6 25.4158 36.5685 23.7767 36.95C23.2187 33.625 24.1254 30.104 26.4271 26.373C28.7334 22.6443 31.707 19.8408 35.3478 17.9625L29.8343 9.99999C27.0444 11.386 24.394 13.143 21.9528 15.2675C19.4768 17.392 17.2797 19.835 15.3268 22.5965C13.3739 25.358 11.9092 28.4765 10.9676 32.0115C10.026 35.5465 9.76448 39.1515 10.2144 42.8615C10.8002 47.7615 12.3765 51.6815 14.9432 54.5865C17.5076 57.5288 20.702 59 24.5265 59C27.8918 59 30.6852 57.985 32.8962 55.927C35.0839 53.911 36.1766 51.1483 36.1743 47.639L36.1813 47.6495ZM67.9999 47.6495C67.9999 44.5695 67.1979 41.983 65.5937 39.89C64.4545 38.42 62.9119 37.4668 60.9659 37.0305C59.013 36.5988 57.2228 36.5731 55.5954 36.9535C55.0374 33.6635 55.9093 30.1285 58.2179 26.3835C60.5196 22.6735 63.4908 19.8735 67.1316 17.9835L61.632 9.99999C58.8398 11.386 56.2127 13.1418 53.7506 15.2675C51.2522 17.4237 49.0332 19.8859 47.1455 22.5965C45.2065 25.3615 43.7628 28.4765 42.8212 32.0115C41.8647 35.5437 41.6076 39.2299 42.0644 42.8615C42.6433 47.7615 44.2126 51.6815 46.7724 54.5865C49.3298 57.5078 52.5184 58.9685 56.3382 58.9685C59.7093 58.9731 62.5015 57.95 64.7149 55.899C66.9026 53.883 67.9976 51.1203 67.9999 47.611V47.6495Z" fill="#003B73"/>
</svg>
