<svg width="55" height="52" viewBox="0 0 55 52" fill="none" xmlns="http://www.w3.org/2000/svg">
<path fill-rule="evenodd" clip-rule="evenodd" d="M18.9652 0.998271C8.98765 3.7537 1.80809 12.33 0.181767 23.4361C-0.805823 30.181 2.30899 38.9617 7.62493 44.4187C13.1249 50.0649 20.8672 52.7883 28.6073 51.8009L32.1598 51.3484L27.8719 50.9031C18.9865 49.9812 11.387 44.6362 7.51835 36.5882C5.62629 32.5193 5.2199 25.9347 5.2199 25.9347C5.2199 25.9347 5.51902 19.3011 7.06861 15.8836C10.4044 8.52896 17.0916 2.76635 24.1667 1.14961L26.1206 0.703592V6.85911C26.1206 10.2446 25.8008 13.2169 25.4101 13.4643C24.988 13.7313 24.6996 12.8815 24.6996 11.3717C24.6996 5.15215 21.8682 3.34479 17.7218 6.91804C12.3753 11.5252 9.06866 20.1837 9.06866 29.577C9.06866 39.5707 11.1781 41.4864 15.9427 35.8228C17.8106 33.6029 20.0679 31.7751 21.5691 31.268C24.669 30.2202 25.4101 28.4078 25.4101 21.8732C25.4101 16.1717 26.5028 14.3571 28.5448 16.6679C29.4592 17.7026 29.6439 18.7045 29.2837 20.6719C29.0187 22.1155 29.0201 24.7814 29.2858 26.5968C29.7434 29.7218 29.9651 29.9867 33.4515 31.583C35.8295 32.6723 37.5866 34.0765 38.4136 35.5492C39.1184 36.8029 40.3753 38.202 41.208 38.6582C42.4826 39.3567 42.9259 39.2301 44.013 37.855C45.6095 35.8366 45.7807 26.5488 44.3377 20.2696C42.636 12.8677 36.7858 5.09686 32.915 5.09686C31.0386 5.09686 29.6731 7.96288 29.6731 11.8992C29.6731 13.4847 29.4542 13.895 28.9079 13.3355C28.4403 12.8567 28.2329 10.1079 28.375 6.2763L28.6073 0L25.4101 0.050932C23.6516 0.0793085 20.7513 0.505684 18.9652 0.998271ZM32.2706 3.61036C39.107 5.1376 45.127 10.0009 48.1097 16.4053C50.1758 20.8436 50.4416 29.3551 48.6468 33.6553C45.9569 40.1011 39.8985 45.3835 34.1911 46.2595C29.0727 47.046 28.5014 46.0449 27.803 35.0617L27.2154 25.8335L26.7607 31.2905C25.7916 42.922 25.9501 45.0066 27.9579 47.0628C29.6191 48.7639 30.1825 48.908 33.8565 48.5667C39.8488 48.0101 44.7768 45.5465 48.693 41.151C54.8971 34.1871 56.3643 24.6846 52.519 16.3747C48.9254 8.60754 42.241 3.92978 33.8245 3.2924C29.8898 2.99408 29.6929 3.0341 32.2706 3.61036Z" fill="#EFEFEF"/>
</svg>
