<svg width="82" height="78" viewBox="0 0 82 78" fill="none" xmlns="http://www.w3.org/2000/svg">
<path fill-rule="evenodd" clip-rule="evenodd" d="M20.8318 0.29769C21.3436 0.59308 21.7172 1.07967 21.8703 1.65045L24.266 10.5916L25.9843 9.80935C26.2788 9.67532 26.599 9.60704 26.9226 9.60927C27.2462 9.61149 27.5655 9.68416 27.8581 9.82223C28.1508 9.9603 28.4099 10.1604 28.6174 10.4088C28.8249 10.6571 28.9759 10.9476 29.0597 11.2602L38.5825 46.7996H52.333C52.9241 46.7996 53.4909 47.0344 53.9089 47.4524C54.3268 47.8703 54.5616 48.4372 54.5616 49.0282V75.7714C54.5616 76.3625 54.3268 76.9293 53.9089 77.3473C53.4909 77.7652 52.9241 78 52.333 78H23.4749C21.033 78 18.6587 77.1978 16.7171 75.7169C14.7756 74.2359 13.3742 72.1582 12.7286 69.8032L0.0790454 23.6534C-0.0606986 23.1428 -0.0141027 22.5991 0.210489 22.1197C0.435081 21.6403 0.823 21.2565 1.30478 21.037L3.70052 19.945L0.344249 7.42029C0.268413 7.13758 0.249012 6.84269 0.287156 6.55248C0.3253 6.26227 0.420241 5.98241 0.566556 5.7289C0.71287 5.47538 0.907692 5.25317 1.1399 5.07496C1.3721 4.89675 1.63714 4.76603 1.91987 4.69026L19.1402 0.0770586C19.4232 0.000652866 19.7185 -0.0191884 20.0091 0.0186708C20.2997 0.05653 20.58 0.151346 20.834 0.29769M7.81674 18.0752L5.22711 8.4187L18.1418 4.95769L20.152 12.4614L7.81674 18.0752Z" fill="#003B73"/>
<path d="M59.0185 55.7139H63.4757V77.9999H59.0185V55.7139ZM70.1615 64.6283C70.7526 64.6283 71.3194 64.3935 71.7374 63.9755C72.1553 63.5576 72.3901 62.9907 72.3901 62.3997C72.3901 61.8086 72.1553 61.2417 71.7374 60.8238C71.3194 60.4059 70.7526 60.1711 70.1615 60.1711C69.5705 60.1711 69.0036 60.4059 68.5857 60.8238C68.1677 61.2417 67.9329 61.8086 67.9329 62.3997C67.9329 62.9907 68.1677 63.5576 68.5857 63.9755C69.0036 64.3935 69.5705 64.6283 70.1615 64.6283ZM72.3901 71.3141C72.3901 71.9051 72.1553 72.472 71.7374 72.8899C71.3194 73.3079 70.7526 73.5427 70.1615 73.5427C69.5705 73.5427 69.0036 73.3079 68.5857 72.8899C68.1677 72.472 67.9329 71.9051 67.9329 71.3141C67.9329 70.723 68.1677 70.1561 68.5857 69.7382C69.0036 69.3203 69.5705 69.0855 70.1615 69.0855C70.7526 69.0855 71.3194 69.3203 71.7374 69.7382C72.1553 70.1561 72.3901 70.723 72.3901 71.3141ZM79.0759 69.0855C79.667 69.0855 80.2338 68.8507 80.6518 68.4327C81.0697 68.0148 81.3045 67.4479 81.3045 66.8569C81.3045 66.2658 81.0697 65.6989 80.6518 65.281C80.2338 64.8631 79.667 64.6283 79.0759 64.6283C78.4849 64.6283 77.918 64.8631 77.5001 65.281C77.0821 65.6989 76.8473 66.2658 76.8473 66.8569C76.8473 67.4479 77.0821 68.0148 77.5001 68.4327C77.918 68.8507 78.4849 69.0855 79.0759 69.0855ZM81.3045 57.9425C81.3045 58.5335 81.0697 59.1004 80.6518 59.5183C80.2338 59.9363 79.667 60.1711 79.0759 60.1711C78.4849 60.1711 77.918 59.9363 77.5001 59.5183C77.0821 59.1004 76.8473 58.5335 76.8473 57.9425C76.8473 57.3514 77.0821 56.7846 77.5001 56.3666C77.918 55.9487 78.4849 55.7139 79.0759 55.7139C79.667 55.7139 80.2338 55.9487 80.6518 56.3666C81.0697 56.7846 81.3045 57.3514 81.3045 57.9425ZM79.0759 77.9999C79.667 77.9999 80.2338 77.7651 80.6518 77.3471C81.0697 76.9292 81.3045 76.3623 81.3045 75.7713C81.3045 75.1802 81.0697 74.6133 80.6518 74.1954C80.2338 73.7775 79.667 73.5427 79.0759 73.5427C78.4849 73.5427 77.918 73.7775 77.5001 74.1954C77.0821 74.6133 76.8473 75.1802 76.8473 75.7713C76.8473 76.3623 77.0821 76.9292 77.5001 77.3471C77.918 77.7651 78.4849 77.9999 79.0759 77.9999Z" fill="#003B73"/>
</svg>
