<svg width="56" height="78" viewBox="0 0 56 78" fill="none" xmlns="http://www.w3.org/2000/svg">
<path d="M27.7395 21.4435C29.1612 21.4652 30.573 21.204 31.8928 20.6749C33.2126 20.1459 34.414 19.3596 35.427 18.3619C36.4401 17.3642 37.2446 16.175 37.7938 14.8635C38.3429 13.5519 38.6257 12.1442 38.6257 10.7224C38.6257 9.30051 38.3429 7.89284 37.7938 6.58129C37.2446 5.26974 36.4401 4.08051 35.427 3.08281C34.414 2.08511 33.2126 1.29886 31.8928 0.769825C30.573 0.240788 29.1612 -0.0204716 27.7395 0.00125154C21.8177 0.00125154 17.0146 4.80179 17.0146 10.7211C17.0153 13.5651 18.1455 16.2924 20.1568 18.3031C22.168 20.3139 24.8955 21.4435 27.7395 21.4435ZM41.8871 24.706H29.2638V34.7176L31.5852 35.2857V32.9643C31.5852 31.4563 32.9593 30.0872 35.4672 31.7729C39 34.1544 42.8031 47.6813 38.6784 47.1482C36.6873 46.8941 35.5623 45.928 33.3698 45.8053C31.589 45.714 31.589 44.9481 31.5864 43.9407C31.5839 42.9333 31.5864 39.6996 31.5864 39.6996V37.8975C30.812 37.7112 30.0382 37.5222 29.265 37.3306V49.7111C29.265 49.7111 32.7453 47.3446 35.2344 49.2731C36.8037 50.4933 37.7861 54.0048 32.9317 56.8669C31.8117 57.5489 25.7134 59.162 23.8 55.5704H21.6412C21.1726 55.5704 20.7231 55.7565 20.3917 56.0879C20.0604 56.4193 19.8742 56.8688 19.8742 57.3374C19.8742 57.8061 20.0604 58.2555 20.3917 58.5869C20.7231 58.9183 21.1726 59.1044 21.6412 59.1044H34.4247C35.3968 59.1051 36.3288 59.4917 37.0159 60.1793C37.703 60.8669 38.089 61.7991 38.089 62.7712C38.0883 63.7428 37.702 64.6744 37.015 65.3614C36.328 66.0485 35.3963 66.4347 34.4247 66.4354H21.197C20.9897 66.4516 20.7961 66.5453 20.6549 66.698C20.5137 66.8506 20.4353 67.0509 20.4353 67.2589C20.4353 67.4668 20.5137 67.6671 20.6549 67.8197C20.7961 67.9724 20.9897 68.0661 21.197 68.0823H34.4247C36.4445 68.0823 38.089 69.7267 38.089 71.749C38.089 73.7714 36.4445 75.4133 34.4247 75.4133H18.9544C18.5773 75.4133 18.2157 75.2635 17.9491 74.9969C17.6825 74.7303 17.5327 74.3687 17.5327 73.9916C17.5327 73.6146 17.6825 73.253 17.9491 72.9864C18.2157 72.7198 18.5773 72.57 18.9544 72.57H34.4247C34.6374 72.5617 34.8386 72.4714 34.9861 72.318C35.1337 72.1646 35.2161 71.96 35.2161 71.7472C35.2161 71.5343 35.1337 71.3298 34.9861 71.1764C34.8386 71.0229 34.6374 70.9326 34.4247 70.9243H21.197C20.2257 70.9227 19.2946 70.5361 18.6078 69.8493C17.921 69.1625 17.5344 68.2314 17.5327 67.2601C17.5334 66.288 17.9195 65.3559 18.6064 64.6681C19.2933 63.9802 20.2249 63.5929 21.197 63.5909H34.4247C34.6349 63.5793 34.8327 63.4876 34.9774 63.3347C35.1221 63.1818 35.2028 62.9792 35.2028 62.7687C35.2028 62.5581 35.1221 62.3556 34.9774 62.2027C34.8327 62.0498 34.6349 61.9581 34.4247 61.9465H21.6412C20.4198 61.9445 19.249 61.4581 18.3856 60.5941C17.5223 59.73 17.0369 58.5589 17.0359 57.3374C17.0369 56.1158 17.5223 54.9445 18.3856 54.0803C19.2489 53.216 20.4197 52.7294 21.6412 52.7271H24.4945C24.5133 52.7271 24.5283 52.7371 24.5471 52.7371H25.5182C26.4618 52.7371 26.4255 51.7384 26.423 51.7384V37.4795L24.1041 38.1227V39.6983C24.1041 39.6983 24.1066 42.932 24.1041 43.9394C24.1041 44.9469 24.0966 45.7127 22.3208 45.8053C20.1307 45.928 19.0057 46.8941 17.0096 47.1482C12.8861 47.68 16.6918 34.1544 20.2171 31.7717C22.7237 30.0847 24.1041 31.4538 24.1041 32.963V35.4859L26.423 34.8452V24.7023H14.3553C6.76781 24.7023 0 30.8506 0 38.4369V71.684C0 74.2782 2.0411 76.3819 4.62909 76.3819C5.24579 76.3819 5.85645 76.2603 6.42615 76.0242C6.99585 75.788 7.51341 75.4419 7.94925 75.0056C8.3851 74.5693 8.73067 74.0513 8.96622 73.4814C9.20176 72.9114 9.32266 72.3007 9.32201 71.684V41.7069H13.209V78H42.4352V41.7069H46.3635V71.684C46.3635 74.2782 48.4647 76.3819 51.0577 76.3819C53.6507 76.3819 55.6905 74.2782 55.6905 71.684V38.4369C55.6893 30.8544 49.4721 24.706 41.8871 24.706Z" fill="#003B73"/>
</svg>
