<svg width="57" height="78" viewBox="0 0 57 78" fill="none" xmlns="http://www.w3.org/2000/svg">
<path fill-rule="evenodd" clip-rule="evenodd" d="M15.7044 0.467372C14.7945 0.958007 14.1167 1.7898 13.8198 2.77997C13.5229 3.77015 13.6312 4.83769 14.121 5.74802L25.7197 27.2918C29.3584 34.0466 34.9121 41.1096 41 45.9846C43.5116 47.9932 46.1753 50.5165 47.7315 53.1412C49.233 55.6684 49.3929 57.6535 48.2775 59.5139C47.0607 61.5419 45.0794 62.981 42.7862 63.5114C41.004 61.661 38.8737 60.181 36.5177 59.1565C34.1617 58.132 31.6265 57.5832 29.0577 57.5415C26.489 57.4998 23.9373 57.9662 21.5493 58.9137C19.1613 59.8612 16.9841 61.2713 15.1428 63.0629L20.5755 68.6594C22.2138 67.0638 24.2838 65.9833 26.5296 65.5515C28.7754 65.1197 31.0984 65.3554 33.2116 66.2297C31.987 66.803 30.7936 67.4738 29.686 68.2421C26.839 70.2233 23.7736 73.476 23.7736 78H31.5736C31.5736 77.2785 32.0962 76.0695 34.1477 74.646C36.086 73.2888 38.6717 72.2943 40.8401 71.8574L44.0537 71.2178C46.3081 70.767 48.4434 69.85 50.3226 68.5256C52.2018 67.2011 53.7834 65.4985 54.966 63.527C58.0899 58.3165 56.7834 53.1061 54.4395 49.1593C52.1541 45.306 48.6051 42.0768 45.875 39.8928C40.7192 35.7705 35.8052 29.5694 32.5876 23.5946L20.9851 2.05079C20.4951 1.14024 19.6636 0.461528 18.6733 0.163873C17.6831 -0.133783 16.6152 -0.0221192 15.7044 0.467372ZM7.80294 61.0154C7.79601 58.1647 8.83701 55.4109 10.728 53.2777L4.87792 48.1141C2.96706 50.2798 1.56115 52.843 0.761769 55.6184C-0.0376097 58.3938 -0.210494 61.312 0.255608 64.1624C0.721714 67.0128 1.81516 69.724 3.45695 72.1002C5.09874 74.4764 7.24788 76.4582 9.74906 77.9025L13.6569 71.1515C10.1469 69.1235 7.80294 65.3405 7.80294 61.0115" fill="#003B73"/>
</svg>
