<svg width="48" height="54" viewBox="0 0 48 54" fill="none" xmlns="http://www.w3.org/2000/svg">
<path d="M24.1814 52.9051L24.6171 53.8071L24.6171 53.8071L24.1814 52.9051ZM23.3986 52.9051L22.9629 53.8071L22.963 53.8071L23.3986 52.9051ZM45.5767 23.79C45.5767 32.205 40.9475 38.874 35.8245 43.6758C30.7072 48.4724 25.2098 51.2959 23.7457 52.0031L24.6171 53.8071C26.1654 53.0592 31.8665 50.1316 37.1946 45.1375C42.517 40.1487 47.58 32.9878 47.58 23.79H45.5767ZM23.79 2.00337C35.8224 2.00337 45.5767 11.7576 45.5767 23.79H47.58C47.58 10.6512 36.9289 0 23.79 0V2.00337ZM2.00337 23.79C2.00337 11.7576 11.7576 2.00337 23.79 2.00337V0C10.6512 0 0 10.6512 0 23.79H2.00337ZM23.8343 52.0031C22.3702 51.2959 16.8728 48.4724 11.7555 43.6758C6.63254 38.874 2.00337 32.205 2.00337 23.79H0C0 32.9878 5.06306 40.1487 10.3854 45.1375C15.7135 50.1316 21.4146 53.0592 22.9629 53.8071L23.8343 52.0031ZM23.7457 52.0031C23.7434 52.0043 23.7467 52.0024 23.7555 52.0003C23.7645 51.9982 23.7764 51.9965 23.79 51.9965C23.8037 51.9965 23.8155 51.9982 23.8245 52.0003C23.8333 52.0024 23.8367 52.0043 23.8343 52.0031L22.963 53.8071C23.4951 54.0641 24.0849 54.0641 24.6171 53.8071L23.7457 52.0031ZM32.5548 23.79C32.5548 28.6306 28.6306 32.5548 23.79 32.5548V34.5581C29.7371 34.5581 34.5581 29.7371 34.5581 23.79H32.5548ZM23.79 15.0253C28.6306 15.0253 32.5548 18.9494 32.5548 23.79H34.5581C34.5581 17.8429 29.7371 13.0219 23.79 13.0219V15.0253ZM15.0253 23.79C15.0253 18.9494 18.9494 15.0253 23.79 15.0253V13.0219C17.8429 13.0219 13.0219 17.8429 13.0219 23.79H15.0253ZM23.79 32.5548C18.9494 32.5548 15.0253 28.6306 15.0253 23.79H13.0219C13.0219 29.7371 17.8429 34.5581 23.79 34.5581V32.5548Z" fill="#003B73"/>
</svg>
