<svg width="49" height="49" viewBox="0 0 49 49" fill="none" xmlns="http://www.w3.org/2000/svg">
<g clip-path="url(#clip0_0_87)">
<path fill-rule="evenodd" clip-rule="evenodd" d="M46.2952 0H2.7048C1.2103 0 0 1.2103 0 2.7048V46.2952C0 47.7897 1.2103 49 2.7048 49H26.1709V30.0248H19.7862V22.6307H26.1709V17.1745C26.1709 10.8437 30.037 7.399 35.6842 7.399C38.389 7.399 40.7116 7.5999 41.3903 7.69055V14.3056H37.4752C34.4029 14.3056 33.81 15.7657 33.81 17.9071V22.6282H41.133L40.1776 30.0223H33.8075V49H46.2952C47.7897 49 49 47.7897 49 46.2952V2.7048C49 1.2103 47.7897 0 46.2952 0Z" fill="#003B73"/>
</g>
<defs>
<clipPath id="clip0_0_87">
<rect width="49" height="49" fill="white"/>
</clipPath>
</defs>
</svg>
