<svg width="81" height="78" viewBox="0 0 81 78" fill="none" xmlns="http://www.w3.org/2000/svg">
<path d="M26.3237 14.3684C32.042 16.2979 34.6177 23.2317 35.7476 30.8839L17.4303 41.6027L21.4801 48.7131L36.5049 39.9237C36.6912 45.4822 36.4482 50.5317 36.4482 53.3684C36.4482 65.6842 32.3984 78 16.1992 78C0 78 0 78 0 61.5789C0 30.7895 14.1743 10.2632 26.3237 14.3684ZM81 61.5789V63.3688C80.9798 78 80.3925 78 64.8008 78C48.6016 78 44.5518 65.6842 44.5518 53.3684C44.5518 50.5317 44.3088 45.4863 44.4951 39.9278L59.5199 48.7131L63.5697 41.6027L45.2524 30.888C46.3823 23.2317 48.958 16.302 54.6763 14.3684C66.8257 10.2632 81 30.7895 81 61.5789ZM44.5478 0V36.9474H36.4482V0H44.5478Z" fill="#003B73"/>
</svg>
