<svg width="29" height="49" viewBox="0 0 29 49" fill="none" xmlns="http://www.w3.org/2000/svg">
<path d="M1.28793 1.28915C0.879663 1.69514 0.555757 2.17737 0.334757 2.70825C0.113757 3.23913 0 3.80823 0 4.38298C0 4.95772 0.113757 5.52682 0.334757 6.0577C0.555757 6.58858 0.879663 7.07081 1.28793 7.4768L18.3755 24.5038L1.28793 41.5308C0.464477 42.3514 0.0018648 43.4643 0.0018648 44.6247C0.0018648 45.7851 0.464477 46.898 1.28793 47.7185C2.11139 48.539 3.22823 49 4.39277 49C5.55731 49 6.67415 48.539 7.4976 47.7185L27.7121 27.5757C28.1203 27.1697 28.4442 26.6875 28.6652 26.1566C28.8862 25.6257 29 25.0566 29 24.4819C29 23.9071 28.8862 23.338 28.6652 22.8072C28.4442 22.2763 28.1203 21.794 27.7121 21.3881L7.4976 1.24526C5.82408 -0.422331 3.0055 -0.42233 1.28793 1.28915Z" fill="#003B73"/>
</svg>
