<svg width="29" height="49" viewBox="0 0 29 49" fill="none" xmlns="http://www.w3.org/2000/svg">
<path d="M27.7121 1.28915C28.1203 1.69514 28.4442 2.17737 28.6652 2.70825C28.8862 3.23913 29 3.80823 29 4.38298C29 4.95772 28.8862 5.52682 28.6652 6.0577C28.4442 6.58858 28.1203 7.07081 27.7121 7.4768L10.6245 24.5038L27.7121 41.5308C28.5355 42.3514 28.9981 43.4643 28.9981 44.6247C28.9981 45.7851 28.5355 46.898 27.7121 47.7185C26.8886 48.539 25.7718 49 24.6072 49C23.4427 49 22.3259 48.539 21.5024 47.7185L1.28793 27.5757C0.879658 27.1697 0.555754 26.6875 0.334753 26.1566C0.113752 25.6257 0 25.0566 0 24.4819C0 23.9071 0.113752 23.338 0.334753 22.8072C0.555754 22.2763 0.879658 21.794 1.28793 21.3881L21.5024 1.24526C23.1759 -0.422331 25.9945 -0.42233 27.7121 1.28915Z" fill="#003B73"/>
</svg>
