<svg width="49" height="49" viewBox="0 0 49 49" fill="none" xmlns="http://www.w3.org/2000/svg">
<path d="M28.591 24.0738L22.859 21.3992C22.3588 21.167 21.9479 21.4273 21.9479 21.9811V27.0189C21.9479 27.5727 22.3588 27.833 22.859 27.6008L28.5884 24.9262C29.0912 24.6914 29.0912 24.3086 28.591 24.0738ZM24.5 0C10.9689 0 0 10.9689 0 24.5C0 38.0311 10.9689 49 24.5 49C38.0311 49 49 38.0311 49 24.5C49 10.9689 38.0311 0 24.5 0ZM24.5 34.4531C11.9591 34.4531 11.7396 33.3226 11.7396 24.5C11.7396 15.6774 11.9591 14.5469 24.5 14.5469C37.0409 14.5469 37.2604 15.6774 37.2604 24.5C37.2604 33.3226 37.0409 34.4531 24.5 34.4531Z" fill="#003B73"/>
</svg>
